<svg width="92" height="101" viewBox="0 0 92 101" fill="none" xmlns="http://www.w3.org/2000/svg">
<g filter="url(#filter0_d)">
<path fill-rule="evenodd" clip-rule="evenodd" d="M53.0611 24.482C53.6572 22.5911 54.0188 20.4854 54.0823 18.2465H44.5148V23.8631C47.8669 23.8975 50.7009 24.1167 53.0611 24.482ZM52.5871 25.8356C50.3589 25.5004 47.6812 25.2942 44.5148 25.2641V33.6353C47.8473 33.2185 50.8671 30.2146 52.5871 25.8356ZM34.3756 24.482C36.7357 24.1167 39.5698 23.8975 42.917 23.8631V18.2465H33.3495C33.4179 20.4854 33.7746 22.5911 34.3756 24.482ZM34.8496 25.8356C36.5696 30.2146 39.5845 33.2185 42.917 33.6353V25.2641C39.7506 25.2942 37.0778 25.5004 34.8496 25.8356ZM28.2286 26.2095C28.8149 25.9216 29.6114 25.6079 30.6424 25.3028C31.307 25.1051 32.0204 24.9289 32.8022 24.7699C32.1865 22.763 31.8201 20.5628 31.7565 18.2465H25.3798C25.5215 21.173 26.5526 23.8889 28.2286 26.2095ZM29.1521 27.3784C31.3559 29.8837 34.3756 31.8132 37.8547 32.8446C35.9344 31.2675 34.3512 28.9254 33.2664 26.115C32.4944 26.2654 31.7956 26.4416 31.1506 26.6306C30.3346 26.8713 29.6749 27.1205 29.1521 27.3784ZM59.2032 26.2095C60.8841 23.8889 61.9151 21.173 62.0569 18.2465H55.6802C55.6117 20.5628 55.2453 22.763 54.6296 24.7699C55.4114 24.9289 56.1297 25.1051 56.7942 25.3028C57.8253 25.6079 58.6217 25.9216 59.2032 26.2095ZM58.2797 27.3784C57.7569 27.1205 57.1021 26.8713 56.2861 26.6306C55.6362 26.4416 54.9374 26.2654 54.1654 26.115C53.0855 28.9254 51.4974 31.2675 49.5771 32.8446C53.0611 31.8132 56.0759 29.8837 58.2797 27.3784ZM53.0611 10.6058C50.7009 10.9711 47.8669 11.1903 44.5148 11.229V16.8413H54.0823C54.0188 14.6067 53.6572 12.501 53.0611 10.6058ZM52.5871 9.25648C50.8671 4.87748 47.8473 1.86934 44.5148 1.4525V9.82373C47.6812 9.79365 50.3589 9.59167 52.5871 9.25648ZM34.3756 10.6058C33.7746 12.501 33.4179 14.6067 33.3495 16.8413H42.917V11.229C39.5698 11.1903 36.7357 10.9711 34.3756 10.6058ZM34.8496 9.25648C37.0778 9.59167 39.7506 9.79365 42.917 9.82373V1.4525C39.5845 1.86934 36.5696 4.87748 34.8496 9.25648ZM28.2286 8.88261C26.5526 11.1989 25.5215 13.9191 25.3798 16.8413H31.7565C31.8201 14.525 32.1865 12.3248 32.8022 10.3222C32.0204 10.1589 31.307 9.98703 30.6424 9.78935C29.6114 9.47994 28.8149 9.16623 28.2286 8.88261ZM29.1521 7.71373C29.6749 7.96728 30.3346 8.21652 31.1506 8.45717C31.7956 8.64626 32.4944 8.82245 33.2664 8.97715C34.3512 6.16239 35.9344 3.82464 37.8547 2.24321C34.3756 3.27458 31.3559 5.20408 29.1521 7.71373ZM59.2032 8.88261C58.6217 9.16623 57.8253 9.47994 56.7942 9.78935C56.1297 9.98703 55.4114 10.1589 54.6296 10.3222C55.2453 12.3248 55.6117 14.525 55.6802 16.8413H62.0569C61.9151 13.9191 60.8841 11.1989 59.2032 8.88261ZM58.2797 7.71373C56.0759 5.20408 53.0611 3.27458 49.5771 2.24321C51.4974 3.82464 53.0855 6.16239 54.1654 8.97715C54.9374 8.82245 55.6362 8.64626 56.2861 8.45717C57.1021 8.21652 57.7569 7.96728 58.2797 7.71373ZM43.7183 35.0921C32.7045 35.0921 23.7673 27.2323 23.7673 17.5461C23.7673 7.85984 32.7045 0 43.7183 0C54.7322 0 63.6693 7.85984 63.6693 17.5461C63.6693 27.2323 54.7322 35.0921 43.7183 35.0921Z" fill="white"/>
<path d="M52.9846 24.9761L53.4088 25.0417L53.5379 24.6323C54.1485 22.6957 54.5173 20.5441 54.5821 18.2607L54.5967 17.7465H54.0823H44.5148H44.0148V18.2465V23.8631V24.358L44.5097 24.3631C47.8438 24.3973 50.6533 24.6153 52.9846 24.9761ZM53.0525 26.0184L53.2818 25.4345L52.6615 25.3412C50.4057 25.0019 47.7042 24.7944 44.5196 24.7641L44.0148 24.7593V25.2641V33.6353V34.2017L44.5769 34.1314C48.1688 33.6822 51.3001 30.4798 53.0525 26.0184ZM33.8991 24.6334L34.0289 25.0416L34.4521 24.9761C36.7834 24.6153 39.5929 24.3973 42.9221 24.3631L43.417 24.358V23.8631V18.2465V17.7465H42.917H33.3495H32.834L32.8497 18.2618C32.9194 20.5436 33.2831 22.6954 33.8991 24.6334ZM34.7752 25.3412L34.1549 25.4345L34.3842 26.0184C36.1364 30.4794 39.2628 33.6821 42.8549 34.1314L43.417 34.2017V33.6353V25.2641V24.7593L42.9122 24.7641C39.7276 24.7944 37.0309 25.0019 34.7752 25.3412ZM27.8232 26.5023L28.0703 26.8443L28.449 26.6583C29.0051 26.3852 29.7743 26.0811 30.7843 25.7822L30.785 25.782C31.4336 25.5891 32.1325 25.4163 32.9019 25.2599L33.4418 25.15L33.2802 24.6232C32.6782 22.6608 32.3187 20.5054 32.2563 18.2328L32.243 17.7465H31.7565H25.3798H24.855L24.8804 18.2707C25.0272 21.3018 26.0953 24.1098 27.8232 26.5023ZM28.931 26.9299L28.3456 27.2186L28.7767 27.7086C31.0453 30.2877 34.1472 32.267 37.7126 33.324L38.172 32.4582C36.3327 30.9476 34.794 28.6841 33.7329 25.9349L33.582 25.5441L33.1708 25.6242C32.3821 25.7778 31.6683 25.9578 31.01 26.1508L31.0092 26.1511C30.1752 26.397 29.487 26.6557 28.931 26.9299ZM58.9813 26.6576L59.3602 26.8452L59.6081 26.5028C61.3413 24.1101 62.4095 21.3018 62.5563 18.2707L62.5816 17.7465H62.0569H55.6802H55.1947L55.1804 18.2318C55.1132 20.505 54.7536 22.6608 54.1516 24.6232L53.99 25.15L54.5299 25.2599C55.2998 25.4164 56.0036 25.5892 56.6517 25.782L56.6524 25.7822C57.6626 26.0812 58.4312 26.3852 58.9813 26.6576ZM58.6551 27.7086L59.0862 27.2186L58.5008 26.9299C57.9454 26.656 57.2624 26.3973 56.4275 26.1511L56.4257 26.1505C55.7632 25.9578 55.0497 25.7778 54.261 25.6242L53.8491 25.5439L53.6986 25.9356C52.6427 28.6838 51.0994 30.9473 49.2598 32.4582L49.719 33.324C53.2896 32.267 56.3866 30.2876 58.6551 27.7086ZM53.538 10.4558L53.4091 10.046L52.9846 10.1117C50.6533 10.4725 47.8436 10.6905 44.509 10.729L44.0148 10.7347V11.229V16.8413V17.3413H44.5148H54.0823H54.5967L54.5821 16.8271C54.5173 14.5479 54.1485 12.3964 53.538 10.4558ZM52.6615 9.75091L53.2818 9.65759L53.0525 9.07368C51.3003 4.61267 48.169 1.40569 44.5769 0.956368L44.0148 0.886064V1.4525V9.82373V10.3285L44.5196 10.3237C47.7036 10.2935 50.4053 10.0903 52.6615 9.75091ZM34.4521 10.1117L34.0286 10.0462L33.899 10.4547C33.2831 12.3967 32.9194 14.5484 32.8497 16.826L32.8339 17.3413H33.3495H42.917H43.417V16.8413V11.229V10.7347L42.9228 10.729C39.5931 10.6905 36.7834 10.4725 34.4521 10.1117ZM34.3842 9.07368L34.1549 9.65759L34.7752 9.75091C37.0314 10.0903 39.7281 10.2935 42.9122 10.3237L43.417 10.3285V9.82373V1.4525V0.886064L42.8549 0.956368C39.2625 1.40572 36.1363 4.61305 34.3842 9.07368ZM28.4463 8.4325L28.0691 8.25006L27.8235 8.5895C26.0952 10.978 25.0272 13.7905 24.8804 16.8171L24.855 17.3413H25.3798H31.7565H32.243L32.2563 16.855C32.3187 14.5824 32.6782 12.427 33.2801 10.4692L33.4413 9.94492L32.9044 9.83278C32.1315 9.67134 31.4327 9.50273 30.7857 9.31031C29.7751 9.007 29.0043 8.70239 28.4463 8.4325ZM28.7764 7.38382L28.3432 7.87715L28.9339 8.16362C29.4881 8.43234 30.1749 8.69071 31.0092 8.93675L31.01 8.93698C31.6683 9.12997 32.3812 9.30971 33.1682 9.46741L33.5814 9.55021L33.733 9.15695C34.7939 6.40398 36.3326 4.14443 38.1726 2.62918L37.7126 1.76383C34.1472 2.82078 31.0451 4.80017 28.7764 7.38382ZM59.6079 8.58894L59.3613 8.24918L58.984 8.43322C58.432 8.70248 57.6619 9.00692 56.651 9.31031C56.0044 9.5026 55.3009 9.67122 54.5274 9.83278L53.9905 9.94492L54.1517 10.4692C54.7536 12.4271 55.1132 14.5827 55.1804 16.8561L55.1947 17.3413H55.6802H62.0569H62.5817L62.5563 16.8171C62.4095 13.7904 61.3414 10.9777 59.6079 8.58894ZM58.4979 8.16362L59.0886 7.87715L58.6554 7.38382C56.3868 4.80031 53.2896 2.82079 49.719 1.76378L49.2592 2.62918C51.0996 4.1447 52.6428 6.40435 53.6986 9.15625L53.8497 9.55034L54.2636 9.46741C55.0507 9.3097 55.7633 9.13001 56.4257 8.93727L56.4275 8.93675C57.2627 8.69045 57.9444 8.43203 58.4979 8.16362ZM43.7183 34.5921C32.9183 34.5921 24.2673 26.8977 24.2673 17.5461C24.2673 8.1944 32.9183 0.5 43.7183 0.5C54.5183 0.5 63.1693 8.1944 63.1693 17.5461C63.1693 26.8977 54.5183 34.5921 43.7183 34.5921Z" stroke="#BEE3F8"/>
</g>
<g filter="url(#filter1_d)">
<path d="M44.1433 51.796L43.8062 51.4883L43.4691 51.796L17.5712 75.4385L42.3845 50.8358L42.7426 50.4807L42.3845 50.1257L17.5488 25.4983L43.4691 49.1611L43.8062 49.4689L44.1433 49.1612L70.0664 25.4983L45.2279 50.1257L44.8698 50.4807L45.2279 50.8358L70.0441 75.4384L44.1433 51.796Z" fill="white" stroke="#BEE3F8"/>
</g>
<g filter="url(#filter2_d)">
<path d="M18.7077 64.4609L18.7078 64.4608C25.1965 61.6219 34.0224 59.9062 43.7818 59.9062C53.5431 59.9062 62.3671 61.6219 68.8558 64.4608L68.8559 64.4609C72.1009 65.8798 74.789 67.6003 76.659 69.544C78.5257 71.4844 79.5581 73.6249 79.5581 75.908C79.5581 78.1912 78.5257 80.3313 76.659 82.2714C74.789 84.215 72.101 85.9354 68.8559 87.3552C62.3671 90.1926 53.543 91.9098 43.7818 91.9098C34.0225 91.9098 25.1966 90.1926 18.7078 87.3553C15.4627 85.9354 12.7746 84.215 10.9047 82.2714C9.03796 80.3313 8.00549 78.1912 8.00549 75.908C8.00549 73.6249 9.03798 71.4844 10.9047 69.544C12.7746 67.6003 15.4627 65.8798 18.7077 64.4609ZM76.51 74.4896L77.3433 73.9876C76.3522 70.8795 73.0211 68.0258 67.9586 65.8123C61.8432 63.1375 53.2545 61.445 43.7818 61.445C34.3091 61.445 25.7205 63.1375 19.6051 65.8123C14.541 68.0273 11.2054 70.8828 10.2182 73.9932L11.052 74.4944C13.3248 72.1742 16.729 70.1957 20.9366 68.6419C27.156 66.3452 35.0993 64.9837 43.7818 64.9837C52.5058 64.9837 60.4827 66.3567 66.7148 68.6729C70.8809 70.2217 74.2518 72.1871 76.51 74.4896ZM65.9297 70.071L65.9296 70.071C60.0111 67.8716 52.2513 66.5225 43.7818 66.5225C35.3521 66.5225 27.6249 67.86 21.7181 70.0409L21.7181 70.0409C15.9913 72.1556 11.9858 75.1099 10.5463 78.25L10.4505 78.4591L10.5469 78.6679C11.8286 81.4446 14.9948 83.9856 19.6051 86.0021C25.7204 88.6769 34.309 90.3711 43.7818 90.3711C53.2546 90.3711 61.8432 88.6769 67.9586 86.0021C72.567 83.9872 75.7311 81.4479 77.0147 78.6732L77.1113 78.4644L77.0155 78.2552C75.5841 75.1274 71.6173 72.186 65.9297 70.071Z" fill="white" stroke="#BEE3F8"/>
</g>
<g filter="url(#filter3_d)">
<path d="M69.0089 35.5951C68.7695 35.3474 68.3737 35.2039 67.9535 35.2039H58.3616C57.8143 35.2039 57.3257 35.4515 57.14 35.8284L43.3996 64.1395H43.3605L29.62 35.8284C29.4344 35.4515 28.9457 35.2039 28.3985 35.2039H18.8065C18.3863 35.2039 17.9954 35.3474 17.7511 35.5951C17.5068 35.8427 17.4481 36.1586 17.5849 36.4457L36.6124 75.6534C36.7932 76.0267 37.2818 76.278 37.834 76.278H48.926C49.4782 76.278 49.9668 76.0267 50.1476 75.6534L69.1751 36.4457C69.3119 36.1586 69.2533 35.8427 69.0089 35.5951Z" fill="white"/>
<path d="M68.6495 35.9426L68.6495 35.9426L68.653 35.9462C68.7625 36.0573 68.7619 36.1495 68.7243 36.2294C68.7241 36.2298 68.7239 36.2302 68.7237 36.2306L49.6978 75.4351L49.6976 75.4355C49.628 75.5792 49.3593 75.778 48.926 75.778H37.834C37.4007 75.778 37.132 75.5792 37.0624 75.4355L37.0622 75.4351L18.0363 36.2306C18.0361 36.2302 18.0359 36.2298 18.0357 36.2294C17.9981 36.1495 17.9975 36.0572 18.107 35.9462C18.2372 35.8143 18.4883 35.7039 18.8065 35.7039H28.3984C28.8255 35.7039 29.0962 35.8981 29.171 36.0483C29.1712 36.0487 29.1714 36.049 29.1715 36.0494L42.9106 64.3578L43.0474 64.6395H43.3605H43.3996H43.7127L43.8494 64.3578L57.5885 36.0494C57.5887 36.049 57.5889 36.0486 57.5891 36.0482C57.6639 35.898 57.9347 35.7039 58.3616 35.7039H67.9535C68.275 35.7039 68.5271 35.816 68.6495 35.9426Z" stroke="#BEE3F8"/>
</g>
<defs>
<filter id="filter0_d" x="19.7673" y="0" width="47.902" height="43.0921" filterUnits="userSpaceOnUse" color-interpolation-filters="sRGB">
<feFlood flood-opacity="0" result="BackgroundImageFix"/>
<feColorMatrix in="SourceAlpha" type="matrix" values="0 0 0 0 0 0 0 0 0 0 0 0 0 0 0 0 0 0 127 0" result="hardAlpha"/>
<feOffset dy="4"/>
<feGaussianBlur stdDeviation="2"/>
<feColorMatrix type="matrix" values="0 0 0 0 0.745098 0 0 0 0 0.890196 0 0 0 0 0.972549 0 0 0 1 0"/>
<feBlend mode="normal" in2="BackgroundImageFix" result="effect1_dropShadow"/>
<feBlend mode="normal" in="SourceGraphic" in2="effect1_dropShadow" result="shape"/>
</filter>
<filter id="filter1_d" x="-4" y="8.80078" width="95.6173" height="91.3556" filterUnits="userSpaceOnUse" color-interpolation-filters="sRGB">
<feFlood flood-opacity="0" result="BackgroundImageFix"/>
<feColorMatrix in="SourceAlpha" type="matrix" values="0 0 0 0 0 0 0 0 0 0 0 0 0 0 0 0 0 0 127 0" result="hardAlpha"/>
<feOffset dy="4"/>
<feGaussianBlur stdDeviation="2"/>
<feColorMatrix type="matrix" values="0 0 0 0 0.745098 0 0 0 0 0.890196 0 0 0 0 0.972549 0 0 0 1 0"/>
<feBlend mode="normal" in2="BackgroundImageFix" result="effect1_dropShadow"/>
<feBlend mode="normal" in="SourceGraphic" in2="effect1_dropShadow" result="shape"/>
</filter>
<filter id="filter2_d" x="3.50549" y="59.4062" width="80.5526" height="41.0036" filterUnits="userSpaceOnUse" color-interpolation-filters="sRGB">
<feFlood flood-opacity="0" result="BackgroundImageFix"/>
<feColorMatrix in="SourceAlpha" type="matrix" values="0 0 0 0 0 0 0 0 0 0 0 0 0 0 0 0 0 0 127 0" result="hardAlpha"/>
<feOffset dy="4"/>
<feGaussianBlur stdDeviation="2"/>
<feColorMatrix type="matrix" values="0 0 0 0 0.745098 0 0 0 0 0.890196 0 0 0 0 0.972549 0 0 0 1 0"/>
<feBlend mode="normal" in2="BackgroundImageFix" result="effect1_dropShadow"/>
<feBlend mode="normal" in="SourceGraphic" in2="effect1_dropShadow" result="shape"/>
</filter>
<filter id="filter3_d" x="13.5127" y="35.2039" width="59.7346" height="49.0741" filterUnits="userSpaceOnUse" color-interpolation-filters="sRGB">
<feFlood flood-opacity="0" result="BackgroundImageFix"/>
<feColorMatrix in="SourceAlpha" type="matrix" values="0 0 0 0 0 0 0 0 0 0 0 0 0 0 0 0 0 0 127 0" result="hardAlpha"/>
<feOffset dy="4"/>
<feGaussianBlur stdDeviation="2"/>
<feColorMatrix type="matrix" values="0 0 0 0 0.745098 0 0 0 0 0.890196 0 0 0 0 0.972549 0 0 0 1 0"/>
<feBlend mode="normal" in2="BackgroundImageFix" result="effect1_dropShadow"/>
<feBlend mode="normal" in="SourceGraphic" in2="effect1_dropShadow" result="shape"/>
</filter>
</defs>
</svg>
